<?xml version="1.0" encoding="UTF-8"?>
<!-- Generator: Adobe Illustrator 23.0.3, SVG Export Plug-In . SVG Version: 6.00 Build 0)  -->
<svg xmlns="http://www.w3.org/2000/svg" xmlns:xlink="http://www.w3.org/1999/xlink" version="1.1" id="Layer_1" x="0px" y="0px" viewBox="0 0 295 72" style="enable-background:new 0 0 295 72;" xml:space="preserve">
<style type="text/css">
	.st0{fill:#34A853;}
	.st1{fill:#5F6368;}
	.st2{fill:#4285F4;}
</style>
<g>
	<g>
		<g>
			<path class="st0" d="M64.3,62.7v5.5h-1.5v-5.5l-4-6.4h1.8l2.9,4.8h0.1l2.9-4.8h1.8L64.3,62.7z"></path>
			<path class="st0" d="M67.2,64.1c0-1.3,0.4-2.3,1.2-3.1c0.8-0.8,1.8-1.2,3-1.2c1.2,0,2.2,0.4,3,1.2c0.8,0.8,1.2,1.9,1.2,3.1     c0,1.3-0.4,2.3-1.2,3.1c-0.8,0.8-1.8,1.2-3,1.2c-1.2,0-2.2-0.4-3-1.2C67.6,66.4,67.2,65.4,67.2,64.1z M68.8,64.1     c0,0.9,0.3,1.6,0.8,2.1c0.5,0.5,1.1,0.8,1.9,0.8s1.4-0.3,1.9-0.8c0.5-0.5,0.8-1.3,0.8-2.1c0-0.9-0.3-1.6-0.8-2.1     c-0.5-0.6-1.2-0.8-1.9-0.8c-0.7,0-1.4,0.3-1.9,0.8C69,62.6,68.8,63.3,68.8,64.1z"></path>
			<path class="st0" d="M84.1,68.2h-1.5v-1.1h-0.1c-0.2,0.4-0.6,0.7-1.1,1c-0.5,0.3-1,0.4-1.5,0.4c-1,0-1.8-0.3-2.3-0.9     c-0.5-0.6-0.8-1.4-0.8-2.4v-5.1h1.5v5c0,1.3,0.7,2,2,2c0.6,0,1.1-0.2,1.5-0.7c0.4-0.5,0.6-1.1,0.6-1.8v-4.5h1.5V68.2z"></path>
			<path class="st0" d="M87.5,68.2h-1.5v-8.2h1.5v1.3h0.1c0.2-0.4,0.5-0.8,1-1.1c0.5-0.3,1-0.5,1.4-0.5c0.4,0,0.8,0.1,1.1,0.2     l-0.5,1.5c-0.2-0.1-0.5-0.1-0.9-0.1c-0.6,0-1.1,0.2-1.5,0.7c-0.4,0.5-0.6,1-0.6,1.6V68.2z"></path>
			<path class="st0" d="M107.5,56.3h1.6l-3.2,11.9h-1.6l-2.6-7.9h-0.1l-2.6,7.9h-1.6l-3.3-11.9h1.6l2.5,9.4h0.1l2.6-7.8h1.4l2.6,7.8     h0.1L107.5,56.3z"></path>
			<path class="st0" d="M108.9,64.1c0-1.3,0.4-2.3,1.2-3.1c0.8-0.8,1.8-1.2,3-1.2s2.2,0.4,3,1.2c0.8,0.8,1.2,1.9,1.2,3.1     c0,1.3-0.4,2.3-1.2,3.1c-0.8,0.8-1.8,1.2-3,1.2s-2.2-0.4-3-1.2C109.3,66.4,108.9,65.4,108.9,64.1z M110.5,64.1     c0,0.9,0.3,1.6,0.8,2.1c0.5,0.5,1.1,0.8,1.9,0.8s1.4-0.3,1.9-0.8c0.5-0.5,0.8-1.3,0.8-2.1c0-0.9-0.3-1.6-0.8-2.1     c-0.5-0.6-1.2-0.8-1.9-0.8s-1.4,0.3-1.9,0.8C110.7,62.6,110.5,63.3,110.5,64.1z"></path>
			<path class="st0" d="M120.1,68.2h-1.5v-8.2h1.5v1.3h0.1c0.2-0.4,0.5-0.8,1-1.1c0.5-0.3,1-0.5,1.4-0.5c0.4,0,0.8,0.1,1.1,0.2     l-0.5,1.5c-0.2-0.1-0.5-0.1-0.9-0.1c-0.6,0-1.1,0.2-1.5,0.7c-0.4,0.5-0.6,1-0.6,1.6V68.2z"></path>
			<path class="st0" d="M131.9,68.2H130l-2.5-3.8l-1.2,1.2v2.6h-1.5V56.3h1.5v7.3l3.5-3.6h2v0.1l-3.2,3.2L131.9,68.2L131.9,68.2z"></path>
			<path class="st0" d="M133.2,70.1l-0.7-0.5l0.9-1.4c-0.2,0-0.4-0.2-0.6-0.3c-0.2-0.2-0.2-0.4-0.2-0.7c0-0.3,0.1-0.6,0.3-0.8     c0.2-0.2,0.5-0.3,0.8-0.3c0.3,0,0.6,0.1,0.8,0.3c0.2,0.2,0.3,0.5,0.3,0.8c0,0.3-0.1,0.6-0.3,1L133.2,70.1z"></path>
			<path class="st0" d="M142,68.2h-1.5V56.3h1.5l4.1,7.3h0.1l4.1-7.3h1.5v11.9h-1.5v-7.1l0.1-2h-0.1l-3.7,6.5h-0.9l-3.7-6.5H142     l0.1,2V68.2z"></path>
			<path class="st0" d="M156.9,59.8c1.1,0,2,0.3,2.7,0.9c0.7,0.6,1,1.4,1,2.5v5h-1.5v-1.1H159c-0.6,0.9-1.5,1.4-2.5,1.4     c-0.9,0-1.7-0.3-2.3-0.8c-0.6-0.5-0.9-1.2-0.9-2c0-0.8,0.3-1.5,1-2c0.6-0.5,1.5-0.7,2.6-0.7c0.9,0,1.7,0.2,2.2,0.5v-0.3     c0-0.5-0.2-1-0.6-1.4c-0.4-0.4-0.9-0.6-1.5-0.6c-0.9,0-1.5,0.4-2,1.1l-1.3-0.8C154.3,60.3,155.4,59.8,156.9,59.8z M154.9,65.7     c0,0.4,0.2,0.7,0.5,1s0.7,0.4,1.2,0.4c0.6,0,1.2-0.2,1.7-0.7c0.5-0.5,0.8-1,0.8-1.7c-0.5-0.4-1.1-0.6-2-0.6     c-0.6,0-1.1,0.1-1.6,0.4S154.9,65.3,154.9,65.7z"></path>
			<path class="st0" d="M165.6,68.5c-1.1,0-2-0.4-2.7-1.3c-0.8-0.9-1.1-1.9-1.1-3.1s0.4-2.2,1.1-3.1c0.8-0.8,1.7-1.3,2.7-1.3     c0.6,0,1.1,0.1,1.6,0.4c0.5,0.3,0.9,0.6,1.1,1h0.1l-0.1-1.1v-3.8h1.5v11.9h-1.5v-1.1h-0.1c-0.3,0.4-0.6,0.8-1.1,1     C166.8,68.4,166.2,68.5,165.6,68.5z M165.9,67.1c0.8,0,1.4-0.3,1.8-0.8c0.5-0.5,0.7-1.3,0.7-2.1c0-0.9-0.2-1.6-0.7-2.1     c-0.5-0.6-1.1-0.8-1.8-0.8c-0.7,0-1.3,0.3-1.8,0.8c-0.5,0.6-0.7,1.3-0.7,2.1c0,0.9,0.2,1.6,0.7,2.1     C164.5,66.8,165.1,67.1,165.9,67.1z"></path>
			<path class="st0" d="M175.4,68.5c-1.2,0-2.2-0.4-3-1.2c-0.8-0.8-1.2-1.9-1.2-3.1c0-1.2,0.4-2.3,1.1-3.1c0.8-0.8,1.7-1.2,2.9-1.2     c1.2,0,2.2,0.4,2.9,1.2c0.7,0.8,1.1,1.9,1.1,3.3l0,0.2h-6.4c0,0.8,0.3,1.4,0.8,1.9c0.5,0.5,1.1,0.7,1.8,0.7c1,0,1.7-0.5,2.3-1.5     l1.4,0.7c-0.4,0.7-0.9,1.2-1.5,1.6C176.9,68.3,176.2,68.5,175.4,68.5z M172.9,63.2h4.7c0-0.6-0.3-1-0.7-1.4     c-0.4-0.4-1-0.6-1.7-0.6c-0.6,0-1.1,0.2-1.5,0.5C173.3,62.1,173.1,62.6,172.9,63.2z"></path>
			<path class="st0" d="M191.5,56.3v1.5h-5.4v3.8h4.9V63h-4.9v3.8h5.4v1.5h-7V56.3H191.5z"></path>
			<path class="st0" d="M196.1,59.8c1.1,0,2,0.3,2.7,0.9c0.7,0.6,1,1.4,1,2.5v5h-1.5v-1.1h-0.1c-0.6,0.9-1.5,1.4-2.5,1.4     c-0.9,0-1.7-0.3-2.3-0.8c-0.6-0.5-0.9-1.2-0.9-2c0-0.8,0.3-1.5,1-2c0.6-0.5,1.5-0.7,2.6-0.7c0.9,0,1.7,0.2,2.2,0.5v-0.3     c0-0.5-0.2-1-0.6-1.4c-0.4-0.4-0.9-0.6-1.5-0.6c-0.9,0-1.5,0.4-2,1.1l-1.3-0.8C193.6,60.3,194.7,59.8,196.1,59.8z M194.2,65.7     c0,0.4,0.2,0.7,0.5,1s0.7,0.4,1.2,0.4c0.6,0,1.2-0.2,1.7-0.7c0.5-0.5,0.8-1,0.8-1.7c-0.5-0.4-1.1-0.6-2-0.6     c-0.6,0-1.1,0.1-1.6,0.4S194.2,65.3,194.2,65.7z"></path>
			<path class="st0" d="M207.7,65.9c0,0.7-0.3,1.3-0.9,1.8c-0.6,0.5-1.4,0.7-2.3,0.7c-0.8,0-1.5-0.2-2.2-0.6c-0.6-0.4-1.1-1-1.3-1.7     l1.4-0.6c0.2,0.5,0.5,0.9,0.9,1.1c0.4,0.3,0.8,0.4,1.3,0.4c0.5,0,0.9-0.1,1.2-0.3c0.3-0.2,0.5-0.5,0.5-0.7c0-0.5-0.4-0.9-1.2-1.1     l-1.4-0.3c-1.6-0.4-2.4-1.2-2.4-2.3c0-0.7,0.3-1.3,0.9-1.8c0.6-0.4,1.4-0.7,2.3-0.7c0.7,0,1.4,0.2,2,0.5c0.6,0.3,1,0.8,1.2,1.4     l-1.4,0.6c-0.2-0.3-0.4-0.6-0.8-0.8c-0.3-0.2-0.7-0.3-1.2-0.3c-0.4,0-0.8,0.1-1.1,0.3c-0.3,0.2-0.5,0.4-0.5,0.7     c0,0.5,0.4,0.8,1.3,1l1.2,0.3C206.9,63.9,207.7,64.7,207.7,65.9z"></path>
			<path class="st0" d="M210.9,57.2c0,0.3-0.1,0.6-0.3,0.8c-0.2,0.2-0.5,0.3-0.8,0.3c-0.3,0-0.6-0.1-0.8-0.3     c-0.2-0.2-0.3-0.5-0.3-0.8s0.1-0.6,0.3-0.8c0.2-0.2,0.5-0.3,0.8-0.3c0.3,0,0.6,0.1,0.8,0.3C210.8,56.7,210.9,56.9,210.9,57.2z      M210.6,60.1v8.2h-1.5v-8.2H210.6z"></path>
			<path class="st0" d="M216.2,68.5c-1.2,0-2.2-0.4-3-1.2c-0.8-0.8-1.2-1.9-1.2-3.1c0-1.2,0.4-2.3,1.1-3.1c0.8-0.8,1.7-1.2,2.9-1.2     c1.2,0,2.2,0.4,2.9,1.2c0.7,0.8,1.1,1.9,1.1,3.3l0,0.2h-6.4c0,0.8,0.3,1.4,0.8,1.9c0.5,0.5,1.1,0.7,1.8,0.7c1,0,1.7-0.5,2.3-1.5     l1.4,0.7c-0.4,0.7-0.9,1.2-1.5,1.6C217.7,68.3,217,68.5,216.2,68.5z M213.7,63.2h4.7c0-0.6-0.3-1-0.7-1.4c-0.4-0.4-1-0.6-1.7-0.6     c-0.6,0-1.1,0.2-1.5,0.5C214.1,62.1,213.9,62.6,213.7,63.2z"></path>
			<path class="st0" d="M223,68.2h-1.5v-8.2h1.5v1.3h0.1c0.2-0.4,0.5-0.8,1-1.1c0.5-0.3,1-0.5,1.4-0.5c0.4,0,0.8,0.1,1.1,0.2     l-0.5,1.5c-0.2-0.1-0.5-0.1-0.9-0.1c-0.6,0-1.1,0.2-1.5,0.7c-0.4,0.5-0.6,1-0.6,1.6V68.2z"></path>
		</g>
	</g>
	<g id="XMLID_1481_">
		<path id="XMLID_1547_" class="st1" d="M261.8,36.4c-0.2,0.2-0.5,0.3-0.8,0.3s-0.6-0.1-0.8-0.3c-0.2-0.2-0.3-0.5-0.3-0.8    c0-0.3,0.1-0.6,0.3-0.8c0.2-0.2,0.5-0.3,0.8-0.3s0.6,0.1,0.8,0.3c0.2,0.2,0.3,0.5,0.3,0.8C262.1,35.9,262,36.2,261.8,36.4z"></path>
		<path id="XMLID_1545_" class="st1" d="M267.8,36.9c-1.2,0-2.2-0.4-3-1.2c-0.8-0.8-1.2-1.8-1.2-3c0-1.2,0.4-2.2,1.2-3    c0.8-0.8,1.8-1.2,3-1.2c0.9,0,1.6,0.2,2.2,0.7c0.6,0.4,1,1,1.3,1.7l-1.4,0.6c-0.4-1-1.2-1.5-2.2-1.5c-0.7,0-1.3,0.3-1.8,0.8    c-0.5,0.5-0.8,1.2-0.8,2.1c0,0.8,0.3,1.5,0.8,2.1c0.5,0.5,1.1,0.8,1.8,0.8c1.1,0,1.9-0.5,2.3-1.5l1.3,0.6    c-0.3,0.7-0.7,1.2-1.3,1.6C269.5,36.7,268.7,36.9,267.8,36.9z"></path>
		<path id="XMLID_1542_" class="st1" d="M273.1,29.6c0.8-0.8,1.8-1.2,3-1.2c1.2,0,2.2,0.4,3,1.2c0.8,0.8,1.2,1.8,1.2,3    c0,1.2-0.4,2.2-1.2,3c-0.8,0.8-1.8,1.2-3,1.2c-1.2,0-2.2-0.4-3-1.2c-0.8-0.8-1.2-1.8-1.2-3C272,31.4,272.4,30.4,273.1,29.6z     M274.3,34.7c0.5,0.5,1.1,0.8,1.8,0.8c0.7,0,1.3-0.3,1.8-0.8c0.5-0.5,0.8-1.2,0.8-2.1c0-0.9-0.3-1.6-0.8-2.1    c-0.5-0.5-1.1-0.8-1.8-0.8c-0.7,0-1.3,0.3-1.8,0.8c-0.5,0.5-0.8,1.2-0.8,2.1C273.5,33.5,273.7,34.2,274.3,34.7z"></path>
		<path id="XMLID_1540_" class="st1" d="M281.3,36.6v-8h1.4v1.1h0.1c0.2-0.4,0.6-0.7,1.1-1c0.5-0.3,0.9-0.4,1.4-0.4    c1.2,0,2.1,0.5,2.5,1.5c0.7-1,1.6-1.5,2.8-1.5c0.9,0,1.7,0.3,2.1,0.9c0.5,0.6,0.7,1.4,0.7,2.5v4.9h-1.5v-4.7    c0-0.8-0.1-1.4-0.4-1.7c-0.3-0.3-0.7-0.5-1.3-0.5c-0.6,0-1.1,0.3-1.5,0.8c-0.4,0.5-0.6,1.1-0.6,1.7v4.4h-1.5v-4.7    c0-0.8-0.1-1.4-0.4-1.7c-0.3-0.3-0.7-0.5-1.3-0.5c-0.6,0-1.1,0.3-1.5,0.8c-0.4,0.5-0.6,1.1-0.6,1.7v4.4H281.3z"></path>
	</g>
	<g id="XMLID_1133_">
		<path id="XMLID_1479_" class="st1" d="M157.7,37.6c-5,0-9.1-1.7-12.5-5c-3.3-3.3-5-7.5-5-12.5c0-5,1.7-9.1,5-12.5    c3.3-3.4,7.5-5.1,12.5-5.1c5.1,0,9.2,1.8,12.3,5.5l-3.1,3c-2.4-2.9-5.5-4.4-9.2-4.4c-3.7,0-6.8,1.2-9.3,3.7    c-2.5,2.5-3.7,5.7-3.7,9.6c0,4,1.2,7.2,3.7,9.6c2.5,2.5,5.6,3.7,9.3,3.7c3.9,0,7.3-1.6,10.2-4.9l3.1,3c-1.6,1.9-3.5,3.4-5.9,4.4    C162.8,37,160.3,37.6,157.7,37.6z"></path>
		<path id="XMLID_1477_" class="st1" d="M179.1,3.3v33.5h-4.3V3.3H179.1z"></path>
		<path id="XMLID_1152_" class="st1" d="M182.8,25.3c0-3.5,1.1-6.4,3.3-8.8c2.2-2.3,5.1-3.5,8.5-3.5s6.2,1.2,8.4,3.5    c2.2,2.3,3.4,5.2,3.4,8.8c0,3.6-1.1,6.5-3.4,8.8c-2.2,2.3-5,3.5-8.4,3.5s-6.2-1.2-8.5-3.5C183.9,31.8,182.8,28.9,182.8,25.3z     M187.1,25.3c0,2.5,0.7,4.5,2.2,6c1.4,1.5,3.2,2.3,5.3,2.3c2.1,0,3.9-0.8,5.3-2.3c1.4-1.5,2.2-3.5,2.2-6c0-2.4-0.7-4.4-2.2-5.9    c-1.5-1.6-3.2-2.3-5.3-2.3s-3.9,0.8-5.3,2.3C187.8,20.9,187.1,22.9,187.1,25.3z"></path>
		<path id="XMLID_1150_" class="st1" d="M230.2,36.8h-4.1v-3.2h-0.2c-0.7,1.1-1.7,2.1-3,2.8c-1.4,0.7-2.8,1.1-4.2,1.1    c-2.8,0-5-0.8-6.5-2.4c-1.5-1.6-2.3-3.9-2.3-6.9V13.9h4.3V28c0.1,3.7,2,5.6,5.7,5.6c1.7,0,3.2-0.7,4.3-2.1c1.2-1.4,1.7-3.1,1.7-5    V13.9h4.3V36.8z"></path>
		<path id="XMLID_1147_" class="st1" d="M244.9,37.6c-3,0-5.6-1.2-7.7-3.6c-2.1-2.4-3.2-5.3-3.2-8.7s1.1-6.3,3.2-8.7    c2.2-2.4,4.7-3.6,7.7-3.6c1.7,0,3.2,0.4,4.6,1.1c1.4,0.7,2.5,1.7,3.2,2.9h0.2l-0.2-3.2V3.3h4.3v33.5h-4.1v-3.2h-0.2    c-0.7,1.2-1.8,2.1-3.2,2.9C248.1,37.2,246.5,37.6,244.9,37.6z M245.6,33.6c2.1,0,3.9-0.8,5.2-2.3c1.4-1.5,2.1-3.5,2.1-6    c0-2.4-0.7-4.4-2.1-5.9c-1.4-1.6-3.1-2.3-5.2-2.3c-2.1,0-3.8,0.8-5.2,2.3c-1.4,1.6-2.1,3.5-2.1,5.9c0,2.4,0.7,4.4,2.1,5.9    C241.8,32.8,243.5,33.6,245.6,33.6z"></path>
	</g>
	<path id="XMLID_1130_" class="st2" d="M45.5,15.2c-2-1.8-4.5-2.7-7.6-2.7c-2.6,0-4.8,0.6-6.4,1.8c-0.6,0.5-1.2,1-1.7,1.5   c-0.7,0.8-1.1,2.7,0.5,3.7c1.3,0.8,2.4,0.2,3.1-0.4c0.4-0.4,0.9-0.9,1.4-1.1c0.9-0.6,2-0.8,3.2-0.8c1.6,0,2.9,0.5,4,1.4   c1.1,0.9,1.6,2.2,1.6,3.8v0c-1.6-0.8-3.5-1.1-5.8-1.1c-2.9,0-5.4,0.7-7.4,2.2c-2,1.5-3.1,3.6-3.1,6.2c0,2.4,0.9,4.4,2.6,5.9   c1.7,1.5,3.8,2.2,6.4,2.2c3.1,0,5.6-1.1,7.3-3.4v0.6c0,1.3,1.1,2.4,2.4,2.4h0c1.3,0,2.4-1.1,2.4-2.4V22.7   C48.6,19.5,47.5,16.9,45.5,15.2z M41.6,31.1C40.3,32.3,38.7,33,37,33c-1.2,0-2.2-0.3-3.1-0.9c-0.9-0.6-1.3-1.4-1.3-2.3   c0-1.1,0.5-2.1,1.5-2.9c1-0.8,2.5-1.3,4.5-1.3c2.2,0,3.9,0.4,5.1,1.3C43.6,28.5,42.9,29.9,41.6,31.1z"></path>
	<path id="XMLID_1129_" class="st2" d="M61.3,37.7c-2.6,0-4.8-0.7-6.6-1.9c-1-0.7-1.8-1.6-2.5-2.5c-0.1-0.1-0.1-0.2-0.2-0.2   c-0.8-1.2-0.3-2.9,1.1-3.4l0,0l0.1,0c1-0.4,2.3-0.1,2.9,0.9l0,0.1c1.2,1.8,2.9,2.6,5.1,2.6c1.3,0,2.3-0.3,3.1-0.8   c0.8-0.5,1.1-1.2,1.1-2c0-1.3-0.9-2.2-2.8-2.7l-4.6-1.1c-1.5-0.4-3-1.1-4.3-2.2c-1.4-1.1-2.1-2.6-2.1-4.5c0-2.2,1-3.9,2.9-5.2   c1.9-1.3,4.1-2,6.6-2c2.1,0,4,0.5,5.6,1.4c0.8,0.5,1.5,1,2.1,1.7c0.1,0.1,0.2,0.2,0.3,0.4c0.8,1.2,0.3,2.8-1,3.4l-0.2,0.1   c-1,0.4-2.1,0.1-2.7-0.8c0,0,0,0,0,0c-0.9-1.1-2.3-1.6-4.2-1.6c-1.2,0-2.2,0.2-3,0.7c-0.8,0.5-1.1,1.1-1.1,1.8   c0,1.1,0.9,1.9,2.7,2.3l4.5,1.1c2.2,0.5,3.9,1.4,5,2.7c1.1,1.3,1.6,2.8,1.6,4.4c0,2.2-0.9,4-2.7,5.4C66.3,37,64,37.7,61.3,37.7z"></path>
	<path id="XMLID_1128_" class="st2" d="M79.2,47L79.2,47c-1.7,0-2.9-1.8-2.2-3.4l3.9-8.5l-8.1-18.3c-0.7-1.7,0.5-3.5,2.3-3.5h0   c1,0,1.9,0.6,2.3,1.5l6,14.4l5.8-14.4c0.4-1,1.3-1.6,2.3-1.6h0c1.8,0,3,1.9,2.3,3.5L81.3,45.6C81,46.5,80.1,47,79.2,47z"></path>
	<path id="XMLID_1127_" class="st2" d="M114.6,37.7c-4.9,0-9.2-1.7-12.6-5.1c-3.4-3.4-5.2-7.7-5.2-12.7c0-5,1.7-9.3,5.2-12.7   c3.4-3.4,7.7-5.1,12.6-5.1c2.4,0,4.8,0.5,7,1.4c1.4,0.6,2.6,1.3,3.7,2.2c0,0,0.1,0.1,0.1,0.1c1.1,0.9,1.1,2.6,0.1,3.6l-0.1,0.1   c-0.9,0.9-2.3,0.9-3.3,0.1c0,0,0,0,0,0c-2-1.7-4.5-2.5-7.6-2.5c-3.4,0-6.4,1.2-8.9,3.6c-2.5,2.4-3.7,5.5-3.7,9.4   c0,3.8,1.3,7,3.7,9.4c2.5,2.4,5.5,3.6,8.9,3.6c3.6,0,6.7-1.2,9.1-3.6c1.3-1.3,2.1-3,2.5-5.1c0.1-0.5-0.3-1-0.8-1l-8.7,0   c-1.3,0-2.4-1.1-2.4-2.4v0c0-1.3,1.1-2.4,2.4-2.4h11.9c1.6,0,2.9,1.3,2.9,2.9v0c0,4.8-1.4,8.6-4.3,11.4   C123.9,36,119.7,37.7,114.6,37.7z"></path>
	<path id="XMLID_1123_" class="st2" d="M24.7,23.5c-0.3-3.1-1.3-5.6-3.1-7.6c-2.1-2.3-4.9-3.4-8.4-3.4c-3.4,0-6.2,1.3-8.4,3.7   c-2.2,2.5-3.3,5.4-3.3,8.9c0,3.6,1.1,6.6,3.4,9c2.2,2.4,5.2,3.6,8.7,3.6c2.6,0,4.8-0.6,6.5-1.9c0.9-0.6,1.6-1.3,2.2-2c0,0,0,0,0,0   c0,0,0-0.1,0.1-0.1c0.1-0.1,0.2-0.2,0.3-0.3c0.5-0.8,1-2.1-0.4-3.1c-1.3-1.1-2.8-0.6-3.6,0.3c0,0,0,0-0.1,0.1   c-1.1,1.6-2.8,2.3-5.2,2.3c-1.8,0-3.4-0.6-4.7-1.9c-1.3-1.2-2-2.8-2.2-4.8l15.6,0C24.6,26.1,24.8,24,24.7,23.5z M18.7,30.7 M7,21.9   c0.4-1.4,1.2-2.5,2.1-3.3c1.1-0.9,2.4-1.4,3.9-1.4c2.1,0,3.6,0.6,4.6,1.7c0.9,1,1.5,2,1.6,3.1H7z"></path>
	<path id="XMLID_1122_" class="st2" d="M22.5,33.7C22.5,33.7,22.5,33.7,22.5,33.7C22.4,33.7,22.5,33.7,22.5,33.7z"></path>
	<path id="XMLID_1121_" class="st2" d="M22.4,33.7C22.4,33.7,22.4,33.8,22.4,33.7C22.4,33.8,22.4,33.7,22.4,33.7z"></path>
</g>
</svg>
